<svg width="184" height="40" viewBox="0 0 184 40" fill="none" xmlns="http://www.w3.org/2000/svg">
<path d="M14.8389 34.0847L2.15398 35.841L7.3387 24.1316L14.8389 34.0847Z" stroke="white" stroke-width="2"/>
<path d="M35.0661 14.4706L31.7453 10.0636C30.0834 7.85826 26.9484 7.41767 24.743 9.07953L10.2253 20.0194C8.0199 21.6813 7.5793 24.8163 9.24116 27.0217L12.562 31.4287C14.2239 33.634 17.3589 34.0746 19.5643 32.4128L34.082 21.4728C36.2874 19.811 36.728 16.676 35.0661 14.4706Z" stroke="white" stroke-width="2"/>
<path d="M43.1924 9.59922L38.6679 3.59499C37.3384 1.8307 34.8304 1.47822 33.0661 2.80771L32.8227 2.99112C31.0584 4.32061 30.7059 6.82863 32.0354 8.59292L36.5599 14.5971C37.8894 16.3614 40.3974 16.7139 42.1617 15.3844L42.4051 15.201C44.1694 13.8715 44.5219 11.3635 43.1924 9.59922Z" stroke="white" stroke-width="2"/>
<path d="M45.6868 37.0677H0.510742V38.6811H45.6868V37.0677Z" fill="white"/>
<path d="M45.6868 37.0677H0.510742V38.6811H45.6868V37.0677Z" stroke="white"/>
<path d="M59.096 39V13.08H62.156L77.024 34.896L76.592 34.968V13.08H79.4V39H76.34L61.472 17.184L61.904 17.112V39H59.096ZM93.0198 39.36C91.2198 39.36 89.6358 38.94 88.2678 38.1C86.8998 37.26 85.8318 36.12 85.0638 34.68C84.3198 33.216 83.9478 31.572 83.9478 29.748C83.9478 27.9 84.3318 26.268 85.0998 24.852C85.8678 23.436 86.9238 22.32 88.2678 21.504C89.6358 20.688 91.2198 20.28 93.0198 20.28C94.8438 20.28 96.428 20.688 97.772 21.504C99.14 22.32 100.196 23.436 100.94 24.852C101.708 26.268 102.092 27.9 102.092 29.748C102.092 31.572 101.708 33.216 100.94 34.68C100.196 36.12 99.14 37.26 97.772 38.1C96.428 38.94 94.8438 39.36 93.0198 39.36ZM93.0198 36.912C94.2678 36.912 95.348 36.612 96.26 36.012C97.172 35.388 97.88 34.536 98.384 33.456C98.888 32.376 99.14 31.128 99.14 29.712C99.14 27.6 98.576 25.908 97.448 24.636C96.344 23.364 94.8678 22.728 93.0198 22.728C91.1958 22.728 89.7198 23.364 88.5918 24.636C87.4638 25.908 86.8998 27.6 86.8998 29.712C86.8998 31.128 87.1518 32.376 87.6558 33.456C88.1598 34.536 88.8678 35.388 89.7798 36.012C90.7158 36.612 91.7958 36.912 93.0198 36.912ZM113.579 39.324C111.539 39.324 110.051 38.868 109.115 37.956C108.203 37.02 107.747 35.676 107.747 33.924V16.356L110.627 15.276V33.888C110.627 34.92 110.891 35.676 111.419 36.156C111.947 36.636 112.811 36.876 114.011 36.876C114.491 36.876 114.899 36.852 115.235 36.804C115.595 36.732 115.883 36.648 116.099 36.552V39C115.859 39.096 115.511 39.168 115.055 39.216C114.623 39.288 114.131 39.324 113.579 39.324ZM103.967 23.088V20.64H116.099V23.088H103.967ZM126.943 39.36C125.191 39.36 123.643 38.952 122.299 38.136C120.955 37.296 119.899 36.156 119.131 34.716C118.363 33.276 117.979 31.62 117.979 29.748C117.979 27.876 118.351 26.232 119.095 24.816C119.863 23.376 120.931 22.26 122.299 21.468C123.667 20.676 125.239 20.28 127.015 20.28C128.719 20.28 130.195 20.652 131.443 21.396C132.715 22.14 133.687 23.184 134.359 24.528C135.055 25.872 135.403 27.456 135.403 29.28C135.403 29.52 135.391 29.748 135.367 29.964C135.367 30.18 135.343 30.42 135.295 30.684H120.139V28.272H133.531L132.595 29.604C132.595 27.396 132.103 25.704 131.119 24.528C130.159 23.328 128.791 22.728 127.015 22.728C125.191 22.728 123.715 23.364 122.587 24.636C121.483 25.884 120.931 27.576 120.931 29.712C120.931 31.896 121.483 33.648 122.587 34.968C123.715 36.264 125.215 36.912 127.087 36.912C128.263 36.912 129.295 36.66 130.183 36.156C131.071 35.628 131.719 34.884 132.127 33.924H134.863C134.263 35.604 133.255 36.936 131.839 37.92C130.447 38.88 128.815 39.36 126.943 39.36Z" fill="white"/>
<path d="M151.479 39.36C148.839 39.36 146.547 38.82 144.603 37.74C142.659 36.66 141.159 35.148 140.103 33.204C139.047 31.236 138.519 28.92 138.519 26.256C138.519 23.592 139.035 21.252 140.067 19.236C141.123 17.196 142.575 15.6 144.423 14.448C146.295 13.296 148.443 12.72 150.867 12.72C152.763 12.72 154.479 13.08 156.015 13.8C157.575 14.52 158.847 15.516 159.831 16.788C160.839 18.06 161.451 19.536 161.667 21.216H158.715C158.475 19.44 157.647 18.024 156.231 16.968C154.839 15.912 153.087 15.384 150.975 15.384C149.079 15.384 147.423 15.84 146.007 16.752C144.591 17.64 143.487 18.888 142.695 20.496C141.927 22.104 141.543 24 141.543 26.184C141.543 28.368 141.939 30.252 142.731 31.836C143.547 33.396 144.711 34.596 146.223 35.436C147.759 36.276 149.595 36.696 151.731 36.696C153.195 36.696 154.503 36.492 155.655 36.084C156.807 35.652 157.851 34.992 158.787 34.104L161.739 35.184C160.419 36.576 158.895 37.62 157.167 38.316C155.463 39.012 153.567 39.36 151.479 39.36ZM158.787 35.184V26.796L159.903 27.912H151.695V25.32H161.739V35.184H158.787ZM174.758 39.36C172.958 39.36 171.374 38.94 170.006 38.1C168.638 37.26 167.57 36.12 166.802 34.68C166.058 33.216 165.686 31.572 165.686 29.748C165.686 27.9 166.07 26.268 166.838 24.852C167.606 23.436 168.662 22.32 170.006 21.504C171.374 20.688 172.958 20.28 174.758 20.28C176.582 20.28 178.166 20.688 179.51 21.504C180.878 22.32 181.934 23.436 182.678 24.852C183.446 26.268 183.83 27.9 183.83 29.748C183.83 31.572 183.446 33.216 182.678 34.68C181.934 36.12 180.878 37.26 179.51 38.1C178.166 38.94 176.582 39.36 174.758 39.36ZM174.758 36.912C176.006 36.912 177.086 36.612 177.998 36.012C178.91 35.388 179.618 34.536 180.122 33.456C180.626 32.376 180.878 31.128 180.878 29.712C180.878 27.6 180.314 25.908 179.186 24.636C178.082 23.364 176.606 22.728 174.758 22.728C172.934 22.728 171.458 23.364 170.33 24.636C169.202 25.908 168.638 27.6 168.638 29.712C168.638 31.128 168.89 32.376 169.394 33.456C169.898 34.536 170.606 35.388 171.518 36.012C172.454 36.612 173.534 36.912 174.758 36.912Z" fill="#20C030"/>
</svg>
