<svg width="200" height="200" viewBox="0 0 200 200" fill="none" xmlns="http://www.w3.org/2000/svg">
<rect width="200" height="200" fill="white"/>
<path d="M170.263 143.547C169.152 165.217 151.789 184.855 130.505 189.079C109.222 193.303 85.9278 182.068 75.5571 163.007C74.4126 160.904 73.3934 158.698 72.3743 156.492C69.7434 150.797 67.1134 145.104 62.3308 141.187C56.8701 136.714 49.8472 135.518 42.7535 134.31C38.2489 133.542 33.7159 132.77 29.5363 131.151C19.4605 127.248 11.6372 118.002 9.45638 107.419C5.92231 90.2695 17.1165 72.7601 32.0444 63.6082C46.9723 54.4562 64.9102 51.9073 82.3097 49.9433C88.9657 49.192 94.3723 44.1761 98.2339 38.703C99.7288 36.5842 101.074 34.3577 102.418 32.1329C104.546 28.6109 106.671 25.093 109.384 22.0126C120.875 8.96922 142.272 6.76821 156.907 16.1472C171.542 25.5262 178.547 44.8121 174.655 61.7534C173.985 64.6713 173.033 67.5125 172.082 70.3539L172.082 70.3543C171.171 73.0743 170.26 75.7944 169.595 78.5822C168.175 84.5409 167.904 90.7072 167.742 96.8307C167.55 104.132 167.504 111.452 168.188 118.723C168.426 121.252 168.752 123.779 169.078 126.305C169.818 132.044 170.559 137.781 170.263 143.547Z" fill="#20C030"/>
<path d="M82.2855 44.7675C90.2437 40.8084 96.5776 33.9328 100.566 25.9895C101.089 24.948 101.585 23.8414 101.567 22.6761C101.548 21.5108 100.87 20.2765 99.743 19.9805C98.1276 19.5564 96.7383 21.1053 95.731 22.4374C88.8108 31.5888 78.7386 38.773 67.3729 40.3397C63.0077 40.9415 58.5758 40.7155 54.1752 40.4883L47.3016 40.1334C41.7655 39.8476 36.1526 39.5675 30.7336 40.7357C25.3146 41.9038 20.0196 44.7133 17.0434 49.3901C16.096 50.8787 15.3864 52.6329 15.6486 54.3778C15.9172 56.1659 17.1882 57.6836 18.7192 58.6456C20.2503 59.6076 22.029 60.0889 23.7917 60.4915C25.0824 60.7864 26.4006 61.0475 27.7212 60.9545C29.8802 60.8025 31.8396 59.7289 33.746 58.6843C33.873 58.6147 33.9997 58.5453 34.1263 58.4762C37.4583 56.6584 40.911 55.0441 44.512 53.8446C49.7634 52.0954 55.2852 51.2394 60.7933 50.3855C68.2137 49.2352 75.6094 48.0887 82.2855 44.7675Z" fill="#20C030"/>
<path d="M40.9006 150.239L40.9052 150.239C41.2296 150.252 41.5537 150.265 41.8771 150.282C46.9908 150.548 52.0514 151.801 56.6979 153.953C58.4696 154.774 60.2639 155.801 61.2589 157.481C62.49 159.559 63.9679 161.491 65.6516 163.224C66.3048 163.896 67.0121 164.553 67.8841 164.896C68.7561 165.24 69.8329 165.208 70.5405 164.594C71.4001 163.847 71.4558 162.521 71.1909 161.414C70.7568 159.6 69.6742 158.018 68.6028 156.491C65.0867 151.478 61.385 146.467 56.4919 142.787C51.5989 139.106 45.2843 136.878 39.2951 138.149C37.2272 138.588 35.1776 139.483 33.8066 141.092C32.4355 142.701 31.8937 145.123 32.8812 146.992C33.6645 148.475 35.2526 149.388 36.8785 149.799C38.189 150.13 39.5461 150.184 40.9003 150.239H40.9006Z" fill="#20C030"/>
<path d="M179.223 74.8495C177.856 74.3341 176.308 74.9566 175.15 75.8486C172.865 77.6104 171.513 80.3663 170.898 83.1856C170.283 86.0049 170.332 88.9212 170.385 91.8063L170.837 116.596C170.87 118.407 170.95 120.359 172.064 121.787C172.413 122.234 172.89 122.627 173.454 122.684C174.137 122.754 174.769 122.323 175.263 121.845C177.962 119.231 178.317 115.114 178.64 111.362L178.651 111.226C179.126 105.718 179.948 100.24 181.111 94.8347C181.438 93.3148 181.798 91.7852 182.482 90.389C184.626 86.0123 184.113 80.4563 181.204 76.5461C180.677 75.8388 180.048 75.1606 179.223 74.8495Z" fill="#20C030"/>
<path d="M130.255 108.404C131.697 108.801 132.989 110.003 133.131 111.492C133.405 110.9 134.006 110.471 134.655 110.406L133.712 111.408L134.905 111.432L133.264 112.348C134.281 114.23 134.117 116.552 133.464 118.589C133.065 119.836 132.488 121.085 132.6 122.39C132.711 123.673 133.851 124.984 135.096 124.721L135.158 124.707C136.655 124.329 138.295 124.548 139.64 125.306C141.573 126.394 142.746 128.417 144.074 130.193C145.247 131.762 146.635 133.221 148.37 134.129C150.105 135.038 152.232 135.338 154.039 134.583C154.936 134.209 155.739 133.589 156.69 133.392C157.642 133.195 158.617 133.724 158.966 134.626C159.121 135.025 158.789 136.503 157.942 138.229C158.08 138.19 158.224 138.164 158.374 138.154C162.826 137.865 167.318 136.898 171.148 134.612C172.366 133.886 173.504 133.035 174.633 132.176L175.291 131.675L175.689 131.368C178.167 129.449 180.613 127.309 181.632 124.389L181.685 124.232L181.798 123.887C182.016 123.234 182.292 122.558 182.923 122.355C183.796 122.075 184.591 122.92 185.121 123.667L188.944 129.057C189.043 129.196 189.143 129.339 189.18 129.505C189.346 130.237 188.253 130.607 187.548 130.347C186.267 129.874 185.239 128.465 183.895 128.707C182.95 128.877 182.385 129.792 181.918 130.653L181.8 130.873C178.971 136.17 174.21 140.408 168.621 142.604C167.18 143.17 165.692 143.604 164.205 144.037L161.203 144.912L161.732 145.006C166.212 145.792 170.992 146.271 175.06 144.286C177.769 142.964 179.856 140.689 181.824 138.389L182.538 137.549L182.833 137.199C184.041 135.75 185.189 134.198 185.542 132.361C185.677 131.656 186.567 131.32 187.26 131.511C187.952 131.702 188.479 132.249 188.969 132.774L192.686 136.752C192.979 137.066 193.287 137.412 193.33 137.838C193.373 138.265 192.99 138.748 192.578 138.628L188.548 137.458C188.17 137.348 187.751 137.241 187.396 137.409C187.123 137.538 186.947 137.802 186.791 138.063L182.458 145.38C181.238 147.44 178.977 148.635 176.755 149.528C171.427 151.671 165.646 152.678 159.908 152.462C159.284 152.439 158.66 152.401 158.044 152.304C155.73 151.939 153.639 150.762 151.615 149.571C151.97 150.869 151.654 151.964 149.546 152.047C147.679 152.121 143.105 144.434 141.683 144.035C133.92 141.858 132.645 137.561 130.151 134.626C130.151 134.626 125.111 135.277 121.784 134.583C113.984 132.957 108.742 127.955 106.852 127.636C104.962 127.318 103.716 128.529 103.133 127.794L103.133 127.262C103.223 127.116 104.126 126.272 106.702 126.82C110.299 127.585 116.05 130.474 120.441 131.014C125.051 131.581 128.957 130.831 128.935 130.705C128.891 130.448 130.05 129.357 129.124 128.807C128.198 128.256 114.758 122.861 111.836 118.366L111.801 118.31C111.299 117.476 110.917 115.404 111.928 116.353L112.211 115.851C113.299 116.877 116.872 119.223 120.584 121.536C124.508 123.981 130.05 125.547 130.151 125.478C132.41 123.951 130.407 122.845 130.033 122.52C129.158 121.76 127.996 121.346 127.242 120.466C125.434 118.354 126.726 114.578 124.659 112.719C124.346 112.438 123.966 112.217 123.74 111.862C123.352 111.255 123.542 110.41 124.013 109.864C124.483 109.318 125.171 109.013 125.851 108.775C127.264 108.282 128.812 108.007 130.255 108.404Z" fill="white"/>
<circle cx="131.467" cy="119.2" r="0.533333" fill="#FFB61D"/>
<ellipse cx="128.215" cy="119.2" rx="0.395526" ry="0.533333" fill="#FFB61D"/>
<path d="M108.888 121.785C103.929 120.502 98.7175 120.206 93.6456 120.919C94.0292 119.024 94.5096 117.148 95.0843 115.301C93.434 115.834 91.4857 114.321 91.5924 112.59C91.6991 110.86 93.8184 109.598 95.3908 110.329C95.931 109.083 95.9652 107.626 95.4842 106.355C95.2535 105.746 96.1732 105.394 96.8249 105.394L100.425 105.394C100.929 105.393 101.63 105.16 101.505 104.672C101.209 103.516 102.004 102.195 103.164 101.916C104.303 101.642 105.586 102.422 105.88 103.552L105.896 103.615C106.169 104.829 107.707 105.215 108.951 105.191L109.571 105.176C110.647 105.154 111.768 105.189 112.489 105.941C113.35 106.842 113.158 108.276 112.874 109.498L112.855 109.579C112.452 111.276 112.023 112.966 111.568 114.649C112.452 121.767 110.262 122.14 108.888 121.785Z" fill="white"/>
<path d="M67.5297 115.842C67.004 112.42 67.0048 108.919 67.5319 105.498L67.5585 105.332C67.6893 104.556 67.919 103.736 68.5677 103.309C69.0534 102.988 69.6667 102.964 70.2517 102.964L74.7303 102.977C74.9342 102.977 75.1576 102.985 75.3109 103.119C75.4642 103.254 75.46 103.562 75.2635 103.617C74.7944 103.747 74.5248 104.288 74.5817 104.771C74.6387 105.254 74.953 105.673 75.3222 105.99C76.2025 106.747 77.5709 107.016 78.5454 106.385C79.5198 105.754 79.749 104.129 78.8256 103.425C80.9176 103.382 83.0106 103.389 85.1024 103.445L85.8867 103.468C86.1402 103.476 86.4205 103.496 86.5976 103.678C86.7306 103.814 86.7743 104.012 86.8044 104.2C87.036 105.648 86.7827 107.17 86.0944 108.465C85.9848 108.671 85.7309 108.898 85.558 108.741C84.823 108.074 83.5869 108.165 82.8349 108.813C82.0828 109.461 81.7921 110.537 81.925 111.52C82.053 112.467 82.743 113.478 83.6973 113.431C84.4488 113.393 85.2845 112.736 85.8524 113.23L84.8956 117.504C84.7257 118.264 84.4205 119.165 83.6595 119.327C79.2664 120.267 74.6602 120.196 70.2981 119.121L70.0865 119.068C69.5571 118.929 69.0298 118.75 68.6168 118.396C67.8979 117.781 67.6734 116.777 67.5297 115.842Z" fill="white"/>
<path d="M101.996 82.2953L112.612 82.5087L112.786 82.513C113.104 82.523 113.426 82.551 113.713 82.685C114.362 82.9878 114.659 83.7344 114.857 84.4229C115.91 88.0976 115.78 92.1018 114.49 95.7005L114.436 95.8479C114.268 96.2906 114.049 96.732 113.652 96.9811C113.326 97.1862 112.928 97.229 112.542 97.2497L112.459 97.2538C110.88 97.3287 109.296 97.2884 107.723 97.1331C108.543 96.6289 108.749 95.4013 108.229 94.5922C107.709 93.7831 106.61 93.4452 105.685 93.708C105.121 93.8682 104.596 94.2536 104.392 94.8033C104.188 95.3529 104.385 96.0588 104.906 96.3272C105.267 96.5128 105.204 97.0973 104.889 97.3519C104.573 97.6064 104.135 97.6245 103.729 97.631L98.4027 97.7174C98.0023 97.7239 97.5814 97.7256 97.2299 97.5338C96.7315 97.2619 96.5023 96.676 96.3618 96.1259C96.023 94.7984 95.9772 93.3969 96.2286 92.0502C96.5314 93.1137 97.8422 93.7597 98.8701 93.3518C99.898 92.944 100.409 91.5751 99.9005 90.5933C99.3918 89.6114 97.9785 89.2398 97.0526 89.8444L97.0141 89.5012C96.8812 88.2984 96.778 87.0799 97.009 85.8952C97.262 84.5976 97.9837 83.3233 99.1669 82.7336C100.03 82.3036 101.026 82.2799 101.996 82.2953Z" fill="white"/>
<path d="M69.7977 94.2373C68.3028 94.2432 66.8075 94.1817 65.3181 94.0532L65.1735 94.0398C64.6401 93.9865 64.0808 93.8798 63.7313 93.4832C63.2597 92.9478 63.3748 92.1407 63.5165 91.4345L63.5307 91.3642C64.1637 88.2656 64.4124 85.0887 64.2696 81.9293L64.243 81.3847C64.2033 80.4052 64.2659 79.2944 65.0796 78.7906C65.3271 78.6373 65.6145 78.5662 65.901 78.5085L65.9964 78.4896C71.206 77.4748 76.6305 77.5777 81.7979 78.7892C82.4784 78.9487 82.6677 79.8705 82.4421 80.532C82.2164 81.1934 81.7319 81.7494 81.5506 82.4244C81.3693 83.0994 81.7016 84.0131 82.4001 84.035C83.8539 84.0805 85.0861 85.5575 84.8908 86.9988C84.6954 88.4401 83.1375 89.5332 81.7115 89.247C81.3768 89.1799 81.2584 89.6745 81.2951 90.0139L81.7021 93.7763C81.7685 94.3904 80.8971 94.5843 80.2812 94.5364L76.6884 94.2568C76.1239 94.2128 75.367 94.3102 75.28 94.8697C75.0635 96.2626 73.6353 97.3503 72.2349 97.1887C70.8345 97.0272 69.6914 95.6429 69.7977 94.2373Z" fill="white"/>
<path fill-rule="evenodd" clip-rule="evenodd" d="M60.127 117.393C60.5256 117.49 61.0962 117.662 61.0646 118.039C60.4267 125.636 57.6805 124.238 55.2318 126.417C54.5848 126.992 54.1981 128.354 53.9202 128.385C54.9507 128.861 56.4463 130.77 59.0201 130.858C66.1913 131.101 68.8015 125.868 68.8015 125.868C68.9702 124.19 68.1193 121.169 69.1814 122.015C69.9145 122.599 69.7696 119.753 70.7711 120.037C71.0721 120.122 70.5464 122.014 70.7711 122.127C70.8953 122.189 71.0789 121.673 71.3992 121.263C71.6664 120.921 72.0784 120.668 72.1636 120.742C72.2214 120.793 72.166 121.282 71.9255 121.696C71.5875 122.277 71.0222 122.837 71.1012 122.93C71.1883 123.033 72.679 121.646 72.7699 121.767C73.373 122.572 69.5526 131.833 63.1058 133.581L62.5953 133.718C58.8372 134.717 57.259 134.853 53.7771 133.581C52.1262 132.978 51.0994 138.61 50.1817 140.485C49.6022 141.669 46.7878 144.57 45.5026 143.692C43.8071 142.535 42.4245 140.381 40.9815 139.291L40.8888 139.223C39.9055 138.518 37.6813 137.448 34.2163 136.013L34.3724 135.941C35.0954 135.612 36.9574 134.809 38.3872 133.581C40.4188 131.837 41.519 128.09 42.9352 126.07C44.3335 124.075 46.21 124.369 45.0775 124.016C45.0775 124.016 42.2079 122.495 40.8888 122.356C36.4833 121.891 30.7402 123.973 28.9029 125.315C26.3821 127.156 28.8867 129.865 25.4035 128.537C24.2426 128.095 27.3541 122.361 31.646 120.037C37.6117 116.805 43.2525 115.917 48.9079 121.06C51.2095 123.154 51.4373 125.017 52.0545 126.438L51.9282 126.09C58.7506 125.64 48.5284 118.81 57.0624 117.1C57.9586 116.921 58.8993 117.108 59.7976 117.315L60.127 117.393Z" fill="white"/>
<circle cx="55.7333" cy="122.133" r="0.533333" fill="#FFB61D"/>
<circle cx="58.6667" cy="123.2" r="0.533333" fill="#FFB61D"/>
<path fill-rule="evenodd" clip-rule="evenodd" d="M27.705 142.817C33.4859 146.82 26.0893 141.291 32.4057 147.88C33.6812 149.21 40.1394 141.611 40.8056 146.115C41.0486 147.757 40.5187 149.467 40.8417 151.096C41.1432 152.616 47.754 151.704 48.2647 151.039C50.1157 148.629 44.355 142.439 43.1471 141.449C36.4066 135.928 34.1823 136.311 27.8842 142.024L27.705 142.817Z" fill="white"/>
<path fill-rule="evenodd" clip-rule="evenodd" d="M178.09 42.7612C179.223 42.8967 180.278 43.0228 180.278 41.7012C180.278 41.3868 176.462 38.6246 175.331 39.6883C173.877 41.0562 172.722 42.6249 171.603 44.1443C169.255 47.334 167.066 50.3066 162.604 50.7495L162.55 50.7555C160.82 50.9644 164.043 52.4997 167.662 50.7495C170.151 49.5462 173.461 45.7394 175.034 43.9312C175.445 43.458 175.738 43.1217 175.865 43.0048L175.898 42.9767C176.434 42.5634 177.282 42.6647 178.09 42.7612ZM183.473 46.3379L187.249 49.335C187.984 49.9189 187.123 51.1772 186.186 51.2375C185.642 51.2725 185.12 51.1051 184.596 50.9369C184.217 50.8153 183.836 50.6931 183.445 50.6468C181.227 50.3847 179.537 52.4729 178.161 54.2317C176.904 55.839 175.528 57.3529 174.047 58.7569L173.847 58.945L173.638 59.1371C172.447 60.2199 171.111 61.2007 169.54 61.4833C167.226 61.8994 164.928 60.7148 163.038 59.3167C162.577 58.9756 162.124 58.6177 161.671 58.2596L161.671 58.2595C160.268 57.1503 158.862 56.0392 157.197 55.4165C155.755 56.2036 154.405 57.1547 153.172 58.2396L153.227 58.1964C155.297 60.2707 156.744 62.9584 157.337 65.8282L156.941 65.7586L156.679 65.7141C154.234 65.304 151.615 65.0613 149.548 66.3701C148.82 66.8313 148.17 67.4753 147.528 68.1122L147.528 68.1122C147.081 68.5556 146.637 68.9954 146.173 69.3676C146.291 69.4377 146.411 69.5105 146.535 69.5861C148.822 70.5216 151.246 71.1207 153.705 71.3583C154.081 71.3946 154.461 71.4235 154.842 71.4524C156.606 71.5864 158.393 71.7221 159.901 72.6078L160.43 72.9239C161.278 73.4262 162.223 73.9042 162.934 73.3227C163.138 73.1554 163.272 72.9261 163.406 72.6957C163.488 72.5555 163.57 72.415 163.668 72.2878C163.928 71.9515 164.443 71.7148 164.766 71.9911L164.897 73.0186C164.992 72.3576 165.63 71.8202 166.298 71.8387C166.965 71.8573 167.572 72.4293 167.63 73.0946C167.736 74.3023 166.367 75.025 165.204 75.4095L159.181 77.3508C157.028 78.0444 154.642 77.6851 152.567 76.7859C150.636 75.9488 148.931 74.6747 147.303 73.3356L146.942 73.0372C145.712 72.0137 144.049 70.9018 142.654 71.6846C145.079 71.8321 146.847 73.9217 148.293 75.8979L148.432 76.0888C148.666 76.4115 148.907 76.7513 148.965 77.1457C149.127 78.2502 147.873 78.9833 146.813 79.3343C147.706 79.8126 147.263 81.2013 146.572 81.9411C145.565 83.0173 144.247 83.7919 142.825 84.1755L142.695 84.6247C142.687 84.6549 142.683 84.6707 142.684 84.6712C143.355 84.6246 143.768 85.5255 143.495 86.1398C143.222 86.754 142.547 87.0811 141.9 87.264C139.769 87.8668 137.361 87.3913 135.618 86.0233L135.28 86.1999C133.807 86.9619 132.285 87.6705 130.648 87.9107C128.886 88.1694 126.946 87.8062 125.672 86.5615L125.756 86.7449C125.936 87.1443 126.098 87.5577 126.104 87.993C126.111 88.4953 125.851 89.0376 125.375 89.1987C124.59 89.4647 123.904 88.6256 123.497 87.9037C123.273 88.4595 123.504 89.0849 123.727 89.693C123.983 90.3866 124.23 91.0578 123.786 91.5772C123.324 92.1182 122.447 91.9797 121.811 91.6606C119.429 90.4655 118.309 87.4575 118.825 84.8425C119.342 82.2276 121.222 80.0377 123.461 78.5916C121.941 77.4773 120.829 75.8184 120.376 73.989C120.496 74.1447 121.035 73.6438 121.801 72.9322C123.201 71.6305 125.36 69.6239 127.104 69.6426C127.439 69.6462 127.978 69.9047 128.507 70.158C128.889 70.3414 129.266 70.522 129.555 70.601C129.579 70.5701 129.608 70.5422 129.642 70.5178L129.312 70.2807C128.648 69.8091 127.955 69.3655 127.169 69.1701C126.252 68.9422 125.166 69.1297 124.582 69.8725C123.153 71.6886 121.343 73.2033 119.303 74.2894L120.512 76.5216C120.012 76.7602 119.39 76.7166 118.926 76.4154L118.869 76.3767L118.905 76.4213C119.601 77.3296 118.989 78.9133 117.849 79.0928C116.692 79.5783 115.526 78.1284 115.64 76.8789C115.72 76.0032 116.153 75.2273 116.588 74.4498C116.773 74.118 116.959 73.7859 117.117 73.4456C117.652 72.2962 117.887 71.0194 118.121 69.7508C118.441 68.0118 118.759 66.2882 119.842 64.929C120.6 63.977 121.662 63.3151 122.751 62.7722C127.074 60.6177 132.189 60.1025 136.855 61.3518C137.649 58.5048 139.225 55.8799 141.363 53.8394L141.491 53.7198C142.309 52.9661 143.327 52.2926 144.412 52.4162L144.498 52.4277C145.575 52.592 146.512 51.7605 147.295 50.9909L147.537 50.7538L147.726 50.5716C149.28 49.0871 151.084 47.7171 153.208 47.5693C155.097 47.4378 156.905 48.3052 158.536 49.2681C160.381 50.3575 162.135 51.5994 163.776 52.9766L164.065 53.2211C164.142 53.287 164.219 53.3535 164.297 53.4203C165.845 54.7496 167.538 56.2042 169.553 56.0837C171.618 55.9601 173.127 54.2455 174.518 52.6655C174.63 52.5377 174.742 52.4108 174.853 52.2856C176.568 50.3549 178.521 48.6551 180.498 46.99L181.346 46.278C181.603 46.0629 181.879 45.8389 182.211 45.7958C182.678 45.7352 183.104 46.045 183.473 46.3379ZM146.141 79.0663C145.722 78.9827 145.149 79.0192 144.423 79.1758C144.901 79.1776 145.303 79.1691 145.63 79.1502C145.788 79.1306 145.945 79.1061 146.1 79.075L146.141 79.0663ZM130.593 69.8215C130.747 69.6644 130.908 69.4986 131.087 69.3569C131.421 69.1812 131.796 69.0919 132.174 69.1279C133.453 69.2493 134.422 70.6098 134.255 71.8837C133.579 73.5569 131.908 74.5116 130.256 75.4559C129.238 76.0376 128.226 76.6153 127.459 77.3546C127.652 77.0371 127.863 76.7837 128.076 76.6281C128.743 76.1426 129.441 75.7218 130.098 75.3252L130.098 75.3252L130.098 75.3252C130.651 74.9918 131.175 74.6756 131.629 74.3523C132.343 73.8436 132.823 73.3603 133.195 72.9857L133.195 72.9857L133.195 72.9856L133.195 72.9856C133.479 72.6992 133.7 72.4764 133.915 72.3545C133.933 72.3446 134.739 70.7106 132.79 69.6426C131.319 68.8363 130.663 69.8564 130.311 70.4046C130.197 70.5824 130.114 70.7106 130.046 70.7106C130.028 70.7106 130.004 70.7079 129.973 70.7025C130.022 70.5285 130.096 70.3606 130.191 70.2034C130.322 70.0994 130.454 69.964 130.593 69.8216L130.593 69.8215L130.593 69.8215ZM131.009 69.4001C130.675 69.5939 130.388 69.8755 130.191 70.2034L130.142 70.2401C130.045 70.3106 129.948 70.3625 129.847 70.3862C129.645 70.4339 129.163 70.0639 128.754 69.7506C128.51 69.5632 128.292 69.396 128.176 69.3506C127.412 69.0511 127.323 69.0468 126.793 69.0217L126.793 69.0217C126.703 69.0174 126.601 69.0126 126.482 69.0056L126.262 68.9919C126.214 68.9891 126.161 68.9869 126.104 68.9845C125.665 68.9661 125.033 68.9395 125.159 68.5982C127.416 62.4908 137.057 61.1618 135.463 68.0656C135.331 68.6364 134.985 69.1361 134.639 69.6357C134.466 69.8856 134.293 70.1354 134.147 70.3941C133.524 69.5088 132.845 69.0421 132.11 68.9941C131.701 68.9673 131.372 69.1318 131.087 69.3569L131.009 69.4001ZM148.498 63.9211L148.5 63.9175C147.969 64.9262 147.4 66.1402 146.791 67.5596C147.248 66.2985 147.822 65.0802 148.498 63.9211ZM152.797 64.8513L152.723 64.8541C152.134 64.8788 151.607 64.9668 151.139 65.1181C150.621 65.2861 150.07 65.5669 149.485 65.9606C150.508 65.3938 151.639 65.0147 152.797 64.8513Z" fill="white"/>
<path fill-rule="evenodd" clip-rule="evenodd" d="M122.713 90.43C122.251 90.971 121.581 90.7965 120.968 90.1981C119.683 88.9459 119.167 86.5298 119.683 83.9148C120.199 81.2998 122.211 80.2224 124.45 78.7762C123.445 78.3625 121.625 75.7387 121.442 73.189C122.062 73.988 122.094 75.4223 122.713 76.2214C123.301 76.9797 124.476 77.9028 125.063 78.6611C125.138 78.7579 125.203 78.9206 125.096 78.9811C122.95 80.2002 121.559 80.6037 120.293 83.9146C119.027 87.2256 121.597 90.2883 121.939 90.1981C122.36 90.087 122.211 89.5287 121.969 89.1668C121.287 88.146 121.936 86.7847 122.491 85.6901C122.788 86.0232 122.074 86.9786 122.225 87.9719C122.372 88.942 123.125 89.9483 122.713 90.43Z" fill="#E7EAEE"/>
<circle cx="131.467" cy="79.4667" r="0.533333" fill="#FFB61D"/>
<circle cx="129.6" cy="77.3333" r="0.533333" fill="#FFB61D"/>
<path d="M49.8428 82.5711C50.1511 83.1466 49.6664 83.9695 49.0136 83.9788C48.4545 80.836 47.8517 77.5841 46.0325 74.9611C42.5492 69.9388 35.3712 68.2892 32.3889 62.9541C30.3583 64.3994 27.2533 64.0309 25.6173 62.1506C24.5999 60.9812 22.8264 60.8377 21.2984 61.0986C19.7705 61.3595 18.2777 61.9362 16.7284 61.8872C16.0561 61.8659 15.3237 61.6851 14.9324 61.138C14.5412 60.5909 14.7672 59.6281 15.433 59.5328C18.3337 59.1176 21.2343 58.7024 24.135 58.2872C24.3628 58.2546 24.6045 58.2158 24.7774 58.064C24.9731 57.8923 25.0345 57.6177 25.0853 57.3623C25.5052 55.2489 25.8078 52.7295 24.2516 51.2392C22.9618 50.0041 20.9262 50.0467 19.174 50.3913C17.4218 50.7359 15.616 51.3028 13.8891 50.8478C12.1623 50.3928 10.7182 48.3415 11.6491 46.8176C12.2726 45.7969 11.5695 44.4356 10.6078 43.7246C9.646 43.0136 8.4491 42.6633 7.51688 41.914C6.58466 41.1646 5.99304 39.7187 6.73557 38.781C7.06214 38.3686 7.57347 38.1514 8.07513 37.9931C9.73544 37.4694 11.5868 37.4294 13.1872 38.1147C14.7876 38.8 16.0873 40.2687 16.3477 41.9901C16.5599 43.3925 16.1567 45.0239 17.0838 46.0973C18.2959 47.5008 20.5361 46.7136 22.3903 46.6967C24.2869 46.6794 26.1622 47.685 27.1974 49.2741C28.2326 50.8633 28.3943 52.9851 27.6119 54.7128C29.8149 52.4714 32.7819 50.752 35.9224 50.8691C38.8232 50.9772 41.4885 52.6457 43.4285 54.8049C45.3686 56.9641 46.6921 59.5939 47.9898 62.1904C48.4733 63.1577 49.6997 63.682 50.733 63.3631C51.7663 63.0442 52.484 61.92 52.3383 60.8485C53.2389 61.0448 53.3327 62.2622 53.3604 63.1835C53.4187 65.1192 54.1197 67.0302 55.3269 68.5445C55.7307 67.7995 56.0388 67.0028 56.2412 66.18C57.1224 67.193 57.4511 68.6592 57.0869 69.9514C56.7227 71.2437 55.6767 72.3224 54.3962 72.7262C53.7148 72.9411 52.8817 73.0443 52.5435 73.6737C53.8213 75.9111 54.9203 78.2505 55.8266 80.6623C56.3126 81.9556 56.6633 83.6198 55.6403 84.5484C54.4575 83.6751 53.7854 82.29 53.1579 80.9605C52.1791 78.8866 51.2002 76.8127 50.2214 74.7388" fill="white"/>
<path fill-rule="evenodd" clip-rule="evenodd" d="M53.0715 61.8116C52.8145 64.3228 53.7545 66.9304 55.5547 68.7001C56.1966 68.3127 56.6071 67.5693 56.5929 66.8197C57.2675 67.9289 56.8896 69.4331 56.0507 70.4239C55.2118 71.4148 54.0083 72.0089 52.8404 72.5758C52.1712 72.9007 51.4765 73.2321 50.7329 73.2543C49.5985 73.2882 48.5822 72.606 47.6547 71.952L44.9334 70.0333C46.3394 72.6569 49.5396 74.1847 52.4636 73.6282C54.4971 76.4808 55.7422 79.8894 56.0261 83.3811L55.4795 82.3712C55.4745 82.3588 55.4679 82.3465 55.4596 82.3344L55.4795 82.3712C55.5581 82.5648 55.2509 82.7791 55.0441 82.6789C54.824 82.5723 54.741 82.3075 54.676 82.0718C53.8755 79.1689 52.4408 76.4426 50.5014 74.139L53.438 80.3607C54.0655 81.6902 54.7376 83.0753 55.9204 83.9486C56.9434 83.02 56.5927 81.3558 56.1067 80.0625C55.2003 77.6507 54.1013 75.3113 52.8236 73.0739C53.0982 72.5628 53.6992 72.3986 54.2803 72.2399C54.4148 72.2032 54.5482 72.1668 54.6763 72.1264C55.9567 71.7226 57.0028 70.6439 57.367 69.3516C57.7312 68.0594 57.4025 66.5931 56.5213 65.5801C56.3189 66.4029 56.0108 67.1997 55.6069 67.9446C54.3998 66.4303 53.6988 64.5194 53.6405 62.5837C53.6128 61.6624 53.519 60.445 52.6184 60.2487C52.7641 61.3202 52.0464 62.4444 51.0131 62.7633C49.9797 63.0822 48.7534 62.5579 48.2699 61.5906C46.9721 58.994 45.6487 56.3643 43.7086 54.2051C41.7685 52.0459 39.1033 50.3774 36.2025 50.2693C33.062 50.1522 30.0949 51.8716 27.892 54.113C28.6744 52.3853 28.5127 50.2635 27.4775 48.6743C26.4423 47.0851 24.5669 46.0796 22.6704 46.0969C22.1894 46.1013 21.6824 46.1575 21.174 46.2139H21.174H21.174H21.174H21.174H21.174H21.174C19.723 46.3748 18.2615 46.5368 17.3639 45.4975C16.7299 44.7635 16.718 43.7685 16.706 42.7642V42.7642C16.7004 42.2999 16.6949 41.8336 16.6278 41.3903C16.3673 39.6689 15.0677 38.2001 13.4673 37.5149C11.8668 36.8296 10.0155 36.8695 8.35521 37.3933C7.85355 37.5516 7.34222 37.7688 7.01566 38.1812C6.27313 39.1189 6.86475 40.5648 7.79696 41.3141C8.28759 41.7085 8.85153 41.9924 9.41592 42.2764L9.41592 42.2764C9.92391 42.5321 10.4323 42.788 10.8878 43.1248C11.8496 43.8358 12.5527 45.197 11.9292 46.2177C10.9982 47.7417 12.4424 49.793 14.1692 50.248C15.5967 50.6241 17.0782 50.3019 18.5387 49.9842C18.845 49.9176 19.1503 49.8512 19.4541 49.7915C21.2063 49.4469 23.2419 49.4043 24.5317 50.6394C26.0878 52.1297 25.7853 54.6491 25.3654 56.7625C25.3146 57.0178 25.2532 57.2924 25.0575 57.4642C24.8846 57.616 24.6429 57.6548 24.4151 57.6874L15.7131 58.933C15.0473 59.0283 14.8213 59.9911 15.2125 60.5382C15.6038 61.0853 16.3362 61.2661 17.0085 61.2873C18.0364 61.3199 19.0394 61.0769 20.0443 60.8336C20.5541 60.7101 21.0643 60.5865 21.5785 60.4987C23.1065 60.2378 24.88 60.3814 25.8974 61.5508C27.5334 63.4311 30.6384 63.7995 32.669 62.3543C34.2383 65.1616 36.9694 66.9485 39.7126 68.7433C42.1825 70.3593 44.6622 71.9818 46.3126 74.3613C48.1318 76.9843 48.7346 80.2362 49.2937 83.3789C49.9465 83.3696 50.4312 82.5468 50.1229 81.9713L49.5095 82.7804C49.2829 77.8271 46.7531 73.0267 42.7952 70.0399C41.8151 69.3002 40.7403 68.6518 39.6677 68.0048C37.311 66.5831 34.9655 65.1681 33.6605 62.8065C33.543 62.5938 33.4336 62.3686 33.4145 62.1264C33.3904 61.8199 33.5126 61.5244 33.6305 61.2392L33.6473 61.1985C34.1177 60.0573 34.4463 58.8052 34.2153 57.5927C33.9842 56.3802 33.0714 55.2337 31.8507 55.0512C33.917 56.3729 34.3406 59.653 32.6778 61.4562C31.0151 63.2594 27.7115 63.1027 26.2269 61.1502C25.0371 59.5853 22.658 59.7769 20.7429 60.2207C18.8279 60.6645 16.5727 61.129 15.0934 59.8345C18.2584 58.9642 21.5152 58.4284 24.7922 58.2388C25.5728 58.1936 25.879 57.2198 25.9842 56.445C26.1458 55.2538 26.3074 54.0435 26.1304 52.8545C25.9533 51.6656 25.3882 50.4796 24.3793 49.8261C23.1677 49.0413 21.6037 49.163 20.168 49.3132L16.3528 49.7124C15.5307 49.7984 14.6859 49.8827 13.8888 49.6638C13.0918 49.4449 12.3418 48.8506 12.189 48.0383C12.0925 47.5253 12.2394 47.0201 12.3874 46.5108C12.494 46.1441 12.6012 45.7753 12.6187 45.3999C12.6685 44.3309 11.9779 43.3515 11.1388 42.6874C10.6247 42.2805 10.0519 41.9603 9.47848 41.6398L9.47847 41.6398L9.47847 41.6398C9.116 41.4372 8.75332 41.2345 8.40513 41.0097C7.74972 40.5866 7.07724 39.9029 7.25947 39.1443C7.37601 38.6592 7.815 38.3229 8.25634 38.0903C9.74645 37.3048 11.609 37.2695 13.1278 37.9979C14.6466 38.7263 15.785 40.2009 16.1052 41.8547C16.1842 42.2626 16.2201 42.6887 16.2559 43.1139V43.1139C16.3388 44.0976 16.4213 45.0766 17.0359 45.8156C17.77 46.6984 19.0387 46.9208 20.1856 46.8661C20.5788 46.8474 20.9719 46.8033 21.3648 46.7593L21.3648 46.7593C22.1177 46.675 22.8695 46.5908 23.618 46.6851C26.1352 47.0021 28.1184 49.6211 27.7411 52.1299C27.7202 52.2686 27.6934 52.4085 27.6664 52.5488L27.6664 52.549C27.5704 53.0494 27.4734 53.5547 27.6443 54.0248C27.8632 54.6267 28.8207 54.9473 29.124 54.3832C30.4833 51.8556 33.601 50.5821 36.4514 50.9159C39.3018 51.2498 41.8528 52.9661 43.7242 55.142C45.5956 57.3178 46.8686 59.9362 48.0297 62.5608C48.4386 63.4852 49.6562 63.82 50.6289 63.545C51.6017 63.2699 52.3735 62.5427 53.0715 61.8116ZM47.9635 66.2168C47.9912 66.2129 48.0553 66.3384 48.152 66.5277C48.3899 66.9934 48.825 67.8451 49.3987 68.1042C49.3732 68.3455 48.9936 68.2163 48.8358 68.0319C48.3872 67.5077 47.9112 66.9047 47.9635 66.2168ZM49.3177 70.3539C49.6138 70.7879 47.8404 71.0038 47.2509 70.6252C47.3547 70.6052 47.4915 70.6159 47.643 70.6277C47.8226 70.6416 48.0229 70.6572 48.2133 70.6252C48.492 70.5784 48.7611 70.4928 48.9642 70.4282L48.9643 70.4281C49.1614 70.3655 49.2963 70.3225 49.3177 70.3539ZM48.892 68.7413C48.1861 68.8623 47.3188 67.9221 47.3188 67.0377C47.5222 67.6916 48.2451 68.2102 48.6445 68.4968C48.8478 68.6426 48.9673 68.7284 48.892 68.7413ZM51.4213 72.4391C50.481 72.4391 50.0548 70.8536 50.481 70.7518C50.583 70.7055 50.5878 70.8475 50.5949 71.0572C50.6024 71.2777 50.6123 71.573 50.7405 71.803C50.8829 72.0586 51.1844 72.2293 51.3604 72.329C51.4935 72.4044 51.5548 72.4391 51.4213 72.4391ZM52.4688 70.2802C52.6752 70.3939 52.8635 70.5702 52.917 70.7998C52.9704 71.0293 52.842 71.3075 52.6113 71.3554C52.539 71.2491 52.5782 71.1816 52.6195 71.1104C52.6802 71.0058 52.7455 70.8933 52.4688 70.6383C52.3522 70.531 52.2166 70.4843 52.1214 70.4515C52.0482 70.4263 51.9989 70.4094 52.0008 70.3794C52.0128 70.1886 52.3014 70.188 52.4688 70.2802ZM50.7089 68.2141C50.6623 68.2465 50.6303 68.2687 50.6578 68.2943C50.7427 68.3732 50.8427 68.411 50.9426 68.3537C51.0188 68.3099 51.0574 68.2211 51.0753 68.1351C51.1757 67.6548 50.6684 67.1587 50.1904 67.2697C50.2328 67.3815 50.314 67.4173 50.4126 67.4607C50.5264 67.5108 50.6633 67.5711 50.7904 67.7701C50.9617 68.0384 50.8045 68.1476 50.7089 68.2141ZM50.5481 72.7423C49.9945 72.5811 49.447 71.2737 49.7417 71.1746C49.9255 71.1129 49.9245 71.1228 49.9138 71.2262C49.904 71.321 49.8861 71.4941 49.9945 71.7625C50.129 72.0956 50.3174 72.3661 50.4374 72.5382C50.5196 72.6562 50.5696 72.7281 50.5481 72.7423ZM50.7668 83.1749C50.8666 83.3063 51.0948 83.2486 51.1827 83.109C51.2706 82.9693 51.2595 82.7915 51.2436 82.6274C51.0138 80.2531 50.3976 77.9166 49.4266 75.7378C49.1501 75.1172 48.8592 74.3434 49.2827 73.8121C50.2615 76.2586 51.2486 78.7355 51.6051 81.3463C51.7025 82.0589 51.7374 82.8392 51.3401 83.4387C50.9428 84.0382 49.9529 84.2681 49.5115 83.7003C50.1904 83.5585 50.7098 82.871 50.6609 82.1792C50.9745 82.3929 51.0284 82.9 50.7668 83.1749ZM58.6791 130.318C62.2309 130.124 66.3457 129.611 68.2087 126.581C68.6918 125.795 68.5888 124.559 68.5039 123.541C68.4356 122.724 68.3791 122.046 68.6477 121.855C69.2505 121.425 69.7327 122.533 69.7327 122.533C69.7503 122.46 69.7705 122.369 69.7933 122.267L69.7934 122.266C69.9618 121.511 70.2718 120.121 70.7589 120.382C70.9593 120.489 70.8903 121.165 70.8429 121.63C70.8318 121.739 70.8218 121.837 70.8169 121.912C70.8055 121.984 70.8039 122.044 70.8124 122.086C70.8192 122.084 70.8263 122.08 70.8337 122.075C70.8388 122.074 70.845 122.069 70.8524 122.06C70.9311 121.994 71.039 121.83 71.159 121.647L71.159 121.647L71.1591 121.647C71.4078 121.268 71.7085 120.81 71.9101 120.979C72.2267 121.243 71.1012 122.93 71.1012 122.93C71.1012 122.93 72.4379 121.461 72.5506 122.086C72.6634 122.712 69.6194 128.357 66.8717 130.572C64.124 132.786 60.2523 134.026 56.7514 133.582C56.8296 132.193 57.2905 130.395 58.6791 130.318ZM71.0412 121.311C71.1581 121.106 71.3171 120.911 71.5139 120.786C72.5723 120.117 72.2166 121.153 72.0518 121.633C72.0099 121.755 71.9804 121.842 71.9895 121.855C72.0045 121.876 72.0704 121.828 72.1586 121.763C72.3217 121.644 72.5611 121.468 72.6954 121.574C73.0558 121.746 72.6523 123.301 72.3358 123.968L72.2924 124.058C70.6747 127.411 68.273 130.472 65.0646 132.361C61.8562 134.25 57.7858 134.846 54.3397 133.436C53.1342 132.943 52.1214 134.445 51.6756 135.669L50.3414 139.331C49.6601 141.202 48.7837 143.279 46.9266 143.996C48.5922 148.338 49.128 153.108 48.4671 157.711C48.2381 159.307 47.8167 160.977 46.66 162.099C44.6998 164.001 41.5105 163.598 38.8948 162.812L37.5711 162.409C35.3427 161.738 33.023 161.16 30.9129 162.013C30.5347 162.166 30.1746 162.362 29.8151 162.558C29.3082 162.834 28.8024 163.11 28.2482 163.263C27.3008 163.524 26.0812 163.269 25.7132 162.358C26.7341 160.361 28.1511 158.567 29.8577 157.111C30.1191 156.888 30.4283 156.66 30.7696 156.7C31.1646 156.745 31.383 157.095 31.6054 157.452C31.7138 157.625 31.8231 157.801 31.9543 157.943C32.4652 158.498 33.3091 158.531 34.0692 158.51L42.7984 158.227C41.9011 156.193 41.3044 154.028 41.0337 151.822L43.689 158.467C41.8488 158.94 39.9323 159.117 38.0365 158.986L37.7644 158.966L37.6223 158.955C36.8508 158.893 36.0717 158.831 35.3299 159.035C34.455 159.275 33.6344 160.014 33.6469 160.921L41.1376 162.67C42.3704 162.953 43.6741 163.189 44.8446 162.734C46.7003 162.013 47.5217 159.85 47.8304 157.883C48.1152 156.068 48.1461 154.214 47.9219 152.39L47.9081 152.288C47.8747 152.064 47.8136 151.837 47.6395 151.7C47.4732 151.569 47.2478 151.557 47.0339 151.559L41.0808 151.664C40.0171 151.683 39.7094 150.152 40.0849 149.156C40.1711 148.928 40.2743 148.698 40.3781 148.466C40.7261 147.69 41.0793 146.903 40.8095 146.129C40.3018 144.673 38.1364 144.757 36.831 145.579C36.4452 145.821 36.075 146.105 35.7053 146.389C34.8561 147.041 34.0094 147.691 32.9815 147.834L32.8642 147.848C31.4745 147.987 30.3264 148.931 29.2832 149.874L16.5452 161.489C16.3437 161.672 16.1231 161.865 15.8521 161.896C15.5841 161.927 15.3298 161.792 15.0987 161.649L15.0495 161.618C13.1507 160.413 11.4093 158.961 9.88357 157.309C9.19465 156.563 10.2132 155.328 11.2281 155.299C11.8312 155.282 12.4026 155.485 12.977 155.688L12.9771 155.688L12.9772 155.688C13.3694 155.827 13.763 155.966 14.1689 156.037C16.414 156.425 18.4278 154.695 19.9787 153.026C22.8312 149.956 25.4212 146.642 27.7112 143.132L26.9897 142.237L36.395 136.646C35.8836 136.581 35.4367 136.163 35.3392 135.656C37.9047 135.158 39.4371 132.595 40.607 130.246L40.7677 129.922C41.9265 127.602 43.3801 125.091 45.8833 124.497C44.0488 122.549 41.2002 121.807 38.5308 121.994C35.9355 122.177 33.4634 123.135 31.0907 124.209L30.8875 124.301C29.8802 124.761 28.7611 125.389 28.5564 126.477C28.5146 126.699 28.5155 126.927 28.5163 127.154C28.5174 127.446 28.5185 127.737 28.4297 128.012C28.2718 128.503 27.5862 128.873 27.2509 128.482C27.4663 129.148 26.6094 129.798 25.9487 129.566C25.2879 129.333 24.9656 128.536 25.0555 127.841C25.1455 127.147 25.5495 126.537 25.9623 125.971C29.2719 121.434 34.3248 117.733 39.9407 117.725C44.7911 117.718 49.5232 120.699 51.6109 125.077C52.0369 125.97 53.5405 125.692 53.9822 124.807C54.4239 123.921 54.1165 122.852 53.702 121.953L53.6046 121.746C53.5684 121.669 53.5317 121.593 53.4949 121.517C53.1309 120.761 52.7612 119.993 52.7714 119.163C52.7733 119.003 52.7897 118.843 52.806 118.683C52.8303 118.446 52.8545 118.21 52.8318 117.974C52.8123 117.771 52.7585 117.572 52.7048 117.374C52.6284 117.091 52.5523 116.809 52.5764 116.52C52.6173 116.027 53.2049 115.546 53.5834 115.864C53.3441 114.47 54.7312 113.054 56.1296 113.265C56.8447 113.372 57.4336 113.803 58.0273 114.237C58.4707 114.561 58.9169 114.887 59.4205 115.083C60.6274 115.55 62.1183 115.139 62.9141 114.118C63.4277 114.995 62.9249 116.112 62.3131 116.924L62.1931 117.081C62.1447 117.144 62.0958 117.207 62.0467 117.269C61.5002 117.971 60.9347 118.696 60.9086 119.568C60.8203 122.518 58.652 125.288 55.8093 126.082C54.6896 126.395 54.6885 128.164 55.5803 128.91C56.4459 129.634 57.6741 129.66 58.8081 129.631L59.2716 129.617C61.2581 129.556 63.2891 129.436 65.0787 128.587C66.9768 127.686 68.5426 125.734 68.3139 123.646C68.2996 123.515 68.2787 123.383 68.2578 123.251C68.1888 122.814 68.1193 122.373 68.2827 121.972C68.4956 121.448 69.3747 121.221 69.586 121.745C69.4538 121.087 70.198 119.848 70.9592 119.947C71.4081 120.005 71.2235 120.733 71.0412 121.311ZM71.0412 121.311C71.018 121.385 70.9948 121.456 70.9731 121.522C70.8755 121.822 70.8049 122.038 70.8782 122.021C70.8683 122.039 70.8597 122.052 70.8524 122.06C70.846 122.066 70.8397 122.071 70.8337 122.075C70.8125 122.078 70.8101 122.015 70.8169 121.912C70.8427 121.749 70.919 121.525 71.0412 121.311ZM48.709 141.347C48.2922 142.285 47.6023 143.388 46.584 143.263C46.0388 143.197 45.6269 142.785 45.2564 142.362L45.0579 142.132C42.9058 139.634 39.9823 137.974 37.0439 136.445L36.0649 135.94C38.4584 135.469 39.935 133.102 40.9893 130.902L41.3253 130.201C42.2894 128.202 43.3864 126.146 45.3749 125.246C45.6498 125.121 45.965 125.022 46.2485 125.126C46.2913 125.141 46.3374 125.159 46.3854 125.178L46.386 125.178C46.736 125.312 47.1867 125.486 47.1796 125.154C46.5415 124.897 46.4366 123.966 46.8046 123.385C47.1407 122.854 47.7227 122.548 48.299 122.284L48.4633 122.21C48.0957 121.703 47.2989 122.129 46.8826 122.597L46.8484 122.635C46.4306 123.093 45.7893 123.595 45.3072 123.223C43.3148 121.683 40.6594 121.189 38.1532 121.431C35.6469 121.672 33.2558 122.589 30.9662 123.636C30.127 124.02 29.2747 124.439 28.6519 125.12C28.1701 125.647 28.1202 126.348 28.07 127.053C28.0553 127.259 28.0406 127.466 28.0151 127.668C27.9532 128.159 27.6837 128.177 27.4462 128.194C27.319 128.203 27.201 128.211 27.1291 128.291C27.1233 128.297 27.1047 128.326 27.0767 128.368L27.0767 128.369C26.9341 128.587 26.5483 129.18 26.3741 129.121C26.1182 129.034 26.2487 128.482 26.2487 128.482C26.2487 128.482 25.4893 128.699 25.4328 128.482C25.235 127.722 26.3741 126.168 26.3741 126.168C28.2893 123.351 31.1295 121.013 34.252 119.654C37.4323 118.27 41.1436 118.003 44.3947 119.211C48.0601 120.573 50.9626 123.828 51.8983 127.624C52.1315 128.571 53.2326 128.989 54.1947 129.146L54.2971 129.163C54.3537 129.172 54.4106 129.181 54.4678 129.189L54.469 129.19C55.357 129.328 56.3011 129.476 56.867 130.154C57.0338 130.354 56.9877 130.649 56.9304 130.903L56.9137 130.976C56.7026 131.882 56.3344 132.895 55.4546 133.17C54.6551 133.42 53.7077 132.775 53.6465 131.94C53.6411 131.866 53.6395 131.788 53.6379 131.71V131.709C53.6312 131.385 53.6241 131.043 53.3514 130.909L48.709 141.347ZM41.1477 146.299C40.8487 144.762 39.9399 143.38 38.7476 142.366C38.7941 142.97 39.0496 143.556 39.4605 144.001C37.44 144.643 35.5345 145.646 33.8609 146.948C33.413 147.296 32.652 147.614 32.3896 147.11C31.3574 145.131 29.7143 143.475 27.7426 142.428L35.8487 137.77C36.2151 137.559 36.6026 137.343 37.0251 137.339C37.3527 137.335 37.6638 137.461 37.96 137.607L38.1068 137.681C41.1403 139.244 43.8557 141.42 46.0406 144.041C46.5816 144.69 46.8333 145.521 47.0476 146.343L48.0118 150.11C48.0757 150.36 48.1225 150.668 47.927 150.836C47.8171 150.93 47.6621 150.947 47.5177 150.958L47.3486 150.971L47.3484 150.971L47.3481 150.971C44.9481 151.156 43.0116 151.305 40.607 150.958C40.2482 150.27 40.5193 149.417 40.7993 148.537C41.0392 147.783 41.2856 147.008 41.1477 146.299ZM29.0885 143.983C29.9879 144.775 30.7987 145.667 31.5011 146.638C31.5762 146.742 31.6535 146.858 31.6455 146.986C31.6362 147.135 31.5152 147.25 31.4026 147.349L20.9256 156.519C20.4888 156.901 19.7919 156.834 19.3026 156.522C18.8744 156.248 18.5682 155.829 18.2874 155.402L18.1682 155.219C20.8987 153.784 22.6502 151.213 24.4173 148.62C25.5257 146.993 26.6403 145.357 28.0064 143.987C28.1391 143.854 28.2889 143.716 28.4758 143.695C28.707 143.669 28.9139 143.829 29.0885 143.983ZM59.5988 118.405L59.8662 118.487C60.3871 118.648 60.4737 119.346 60.4074 119.887C60.1328 122.128 58.7399 124.346 56.5922 125.043L56.5155 125.069C55.116 125.563 54.1154 127.027 54.1752 128.512C53.2358 128.688 52.2287 127.936 52.1299 126.986C52.1102 126.796 52.1663 126.55 52.3547 126.521C53.2081 126.39 53.9932 125.866 54.4419 125.128C54.8906 124.391 54.9946 123.453 54.7185 122.634C54.6621 122.467 54.5904 122.3 54.5186 122.132L54.5186 122.132C54.3145 121.656 54.1096 121.178 54.253 120.698C54.5801 120.728 54.6421 121.176 54.6076 121.503L54.6039 121.543C54.5774 121.865 54.6343 122.278 54.9466 122.321C55.1526 121.848 55.1954 121.319 55.2379 120.793C55.2916 120.13 55.3447 119.473 55.7252 118.944C56.1601 118.34 56.9403 118.062 57.6848 118.053C58.3362 118.046 58.9732 118.215 59.5988 118.405ZM12.5243 156.188L12.5915 156.11C12.9665 156.028 13.3246 156.508 13.1389 156.844C13.0197 157.06 13.3861 157.273 13.5907 157.136C13.7953 156.999 13.8365 156.72 13.859 156.475C14.0649 156.411 14.2429 156.646 14.2817 156.859C14.292 156.915 14.2984 156.973 14.3048 157.031C14.3225 157.192 14.3403 157.354 14.4423 157.476C14.5808 157.641 14.948 157.556 14.8878 157.348C14.7979 157.039 15.1629 156.787 15.4814 156.742C15.558 156.731 15.6371 156.724 15.7163 156.718C15.9668 156.697 16.2193 156.677 16.4017 156.514L16.4292 156.492C16.6606 156.328 16.9471 156.631 17.1217 156.901L17.2029 157.032C17.587 157.629 18.2397 158.047 18.9435 158.142C19.0814 158.161 19.0112 158.376 18.9099 158.471L16.5348 160.708C16.4197 160.817 16.2331 160.739 16.0982 160.657C14.6884 159.794 13.3869 158.754 12.2339 157.569C11.8707 157.196 12.1788 156.601 12.5243 156.188ZM33.2948 160.351C33.2263 160.633 33.0316 160.948 32.7421 160.927C32.0445 160.876 31.337 160.96 30.6709 161.173C30.732 160.889 30.6078 160.574 30.3692 160.408C30.1952 160.657 30.2664 161.043 30.5178 161.213L29.8537 161.87L29.5358 161.139C29.379 161.181 29.3745 161.373 29.3853 161.55L29.393 161.659C29.4248 162.121 29.0326 162.571 28.5701 162.602C28.1076 162.634 27.6585 162.241 27.6279 161.778C27.5945 161.274 27.9805 160.852 28.3393 160.496L30.8869 157.973C30.9411 157.922 31.0031 157.874 31.0763 157.875C31.1571 157.877 31.2226 157.938 31.2795 157.996L32.2736 158.999C32.4664 159.193 32.3446 159.491 32.2258 159.781C32.1036 160.08 31.9847 160.37 32.2155 160.532C32.4402 160.545 32.6274 160.35 32.7137 160.142C32.7578 160.036 32.7846 159.924 32.8114 159.812C32.8371 159.705 32.8628 159.597 32.9039 159.495C32.9876 159.286 33.1685 159.087 33.3935 159.092C33.6186 159.097 33.7922 159.418 33.6182 159.561C33.4326 159.713 33.3797 159.961 33.3281 160.201L33.3281 160.202L33.3281 160.202C33.3173 160.252 33.3066 160.302 33.2948 160.351ZM15.876 161.466C13.5861 160.241 11.562 158.523 9.98207 156.461C10.1892 156.265 10.5008 156.474 10.7012 156.696L10.7508 156.754C12.252 158.612 14.1372 160.158 16.253 161.266C16.2359 161.433 16.0241 161.545 15.876 161.466ZM26.8581 160.997C27.85 159.7 28.9491 158.484 30.1404 157.367C30.3251 157.194 30.7086 157.078 30.7553 157.326C29.3684 158.65 28.0419 160.037 26.7814 161.482C26.6444 161.363 26.7479 161.141 26.8581 160.997ZM19.24 157.754C18.5479 157.507 17.9308 157.054 17.4887 156.467C17.3223 156.247 17.2174 155.863 17.4695 155.75C17.6687 155.66 17.86 155.848 17.999 156.031L18.1032 156.173C18.5509 156.763 19.1895 157.208 19.8998 157.42C19.9011 157.61 19.7442 157.787 19.556 157.809C19.4488 157.822 19.3417 157.79 19.24 157.754ZM53.2072 119.364C53.5326 119.371 53.8081 119.71 53.749 120.031L53.7566 120.035C53.8017 120.267 53.772 120.513 53.6732 120.728C53.3174 120.379 53.1392 119.857 53.2072 119.364ZM59.4064 119.371C59.4475 119.368 59.4907 119.364 59.5345 119.364C59.5894 119.363 59.6528 119.373 59.7125 119.382C59.8735 119.407 60.0084 119.428 59.881 119.228C59.7065 118.955 59.1958 118.924 59.112 119.238C59.1354 119.395 59.2571 119.385 59.4064 119.371ZM59.8175 120.723L59.8249 120.694C59.9491 120.224 59.8772 119.853 59.5345 119.853C59.4023 119.863 59.2004 120.536 59.2197 120.74C59.2389 120.945 59.4691 121.133 59.6473 121.032C59.753 120.972 59.7868 120.841 59.8175 120.723ZM57.557 120.58C57.3181 120.248 57.2931 119.776 57.4955 119.42C57.5257 119.367 57.5623 119.315 57.6152 119.285C57.7492 119.208 57.9285 119.312 57.9876 119.455C58.0467 119.598 58.0209 119.76 57.9942 119.912C57.9942 119.912 57.7959 120.912 57.557 120.58ZM93.9123 120.652C98.9842 119.94 104.129 120.482 109.154 121.518C112.235 122.153 112.183 121.253 111.974 117.62C111.922 116.716 111.86 115.643 111.835 114.382C111.8 112.677 112.191 111.757 112.578 110.848C112.781 110.371 112.983 109.896 113.121 109.312L113.141 109.231C113.424 108.009 113.617 106.575 112.756 105.675C112.035 104.922 110.914 104.887 109.837 104.91L109.218 104.924C107.974 104.948 106.436 104.563 106.162 103.349L106.147 103.285C105.853 102.155 104.57 101.375 103.431 101.649C102.271 101.928 101.476 103.249 101.772 104.405C101.897 104.893 101.195 105.127 100.692 105.127L97.0915 105.128C96.4398 105.128 95.5202 105.479 95.7509 106.089C96.2319 107.359 96.1976 108.816 95.6575 110.062C94.0851 109.331 91.9658 110.593 91.8591 112.324C91.7524 114.055 93.7007 115.567 95.351 115.034C94.7763 116.881 94.2959 118.757 93.9123 120.652ZM108.166 120.59C103.802 119.519 99.2426 119.248 94.7823 119.796C95.5564 117.992 95.8962 116.004 95.7651 114.045C94.6028 114.86 92.6945 113.904 92.6505 112.486C92.6065 111.067 94.4518 109.995 95.6623 110.736C95.9833 110.932 96.336 110.525 96.4643 110.171C96.9014 108.967 96.9056 107.61 96.4762 106.402C96.3089 105.932 97.0186 105.677 97.5176 105.687L101.753 105.771C102.038 105.776 102.34 105.778 102.582 105.629C102.825 105.481 102.963 105.125 102.785 104.904C102.052 103.994 102.894 102.367 104.06 102.44C105.226 102.513 105.858 104.233 105.017 105.044C104.86 105.195 105.165 105.39 105.383 105.395L110.921 105.522C112.022 105.548 112.8 106.721 112.845 107.822C112.883 108.753 112.553 109.646 112.226 110.527C112.197 110.604 112.169 110.68 112.141 110.757L112.05 111.006C111.069 113.759 110.754 116.745 111.138 119.642C111.212 120.207 110.692 120.71 110.135 120.832C109.644 120.94 109.138 120.833 108.647 120.71L108.166 120.59Z" fill="#00160A"/>
<path fill-rule="evenodd" clip-rule="evenodd" d="M49.1364 69.9001C49.1767 69.639 49.5246 69.4882 49.776 69.5778C50.0274 69.6674 50.2519 70.028 50.0676 70.232C49.776 70.5548 49.0581 70.4066 49.1364 69.9001Z" fill="#FFB61D"/>
<path fill-rule="evenodd" clip-rule="evenodd" d="M158.579 137.496C158.414 137.634 158.084 137.684 158.054 137.471C158.695 136.818 159.137 135.972 159.304 135.072C159.514 135.016 159.574 135.349 159.522 135.56C159.345 136.268 159.138 137.026 158.579 137.496Z" fill="#00160A"/>
<path d="M16.967 59.74C16.9605 59.9504 16.6413 59.9381 16.4483 59.8541C16.5178 59.6664 16.7994 59.6036 16.9421 59.744L16.967 59.74Z" fill="black"/>
<path fill-rule="evenodd" clip-rule="evenodd" d="M108.036 117.538C107.814 117.736 107.44 117.434 107.473 117.138C107.506 116.842 107.768 116.63 108.019 116.471C108.92 115.9 109.964 115.556 111.028 115.479C111.056 115.885 110.53 116.053 110.131 116.13C109.284 116.296 108.477 116.663 107.796 117.192C107.919 117.268 108.009 117.396 108.036 117.538V117.538Z" fill="#00160A"/>
<path fill-rule="evenodd" clip-rule="evenodd" d="M111.058 118.056C110.559 118.297 110.051 118.519 109.535 118.723C109.594 118.94 109.906 118.933 110.118 118.857C110.33 118.78 110.609 118.7 110.746 118.878C110.397 119.41 109.534 119.493 109.09 119.037C108.897 118.839 108.549 118.97 108.3 118.849C107.943 118.677 108.01 118.139 108.219 117.804C108.657 117.103 109.493 116.671 110.317 116.719C110.631 116.737 111.007 116.892 111.027 117.206C110.042 117.144 109.038 117.55 108.373 118.279C108.751 118.572 109.293 118.353 109.719 118.137C110.145 117.921 110.708 117.731 111.058 118.056Z" fill="#00160A"/>
<path fill-rule="evenodd" clip-rule="evenodd" d="M58.6202 120.85C58.903 121.133 59.0203 121.262 59.0203 121.678C59.0203 122.094 58.7946 122.361 58.4137 122.484C58.2381 122.54 57.995 122.497 57.9494 122.318C59.2186 122.059 58.7522 121.505 58.6202 120.85Z" fill="#00160A"/>
<path fill-rule="evenodd" clip-rule="evenodd" d="M56.9268 119.08C57.0622 118.631 57.6512 118.388 58.0636 118.612C58.2267 118.7 58.3624 118.861 58.3708 119.046C57.8895 119.057 57.4932 118.746 56.9268 119.08Z" fill="#00160A"/>
<path fill-rule="evenodd" clip-rule="evenodd" d="M58.0792 123.091C57.4962 123.51 55.3942 121.6 58.0792 123.091V123.091Z" fill="#00160A"/>
</svg>
